<?xml version="1.0" encoding="UTF-8"?>
<svg width="82px" height="22px" viewBox="0 0 82 22" version="1.1" xmlns="http://www.w3.org/2000/svg" xmlns:xlink="http://www.w3.org/1999/xlink">
    <!-- Generator: Sketch 48.1 (47250) - http://www.bohemiancoding.com/sketch -->
    <title>BBC</title>
    <desc>Created with Sketch.</desc>
    <defs></defs>
    <g id="Components/mobile/homepage" stroke="none" stroke-width="1" fill="none" fill-rule="evenodd" transform="translate(-225.000000, -435.000000)">
        <g id="Group-2" transform="translate(47.000000, 226.000000)" fill="#FFFFFF" fill-rule="nonzero">
            <g id="BBC" transform="translate(178.000000, 208.000000)">
                <g id="Group" transform="translate(41.092169, 11.780176) scale(-1, 1) rotate(-180.000000) translate(-41.092169, -11.780176) translate(28.592169, 0.780176)">
                    <path d="M15.9020706,7.49568304 C15.9020706,5.21659023 12.7664511,5.35171511 12.7664511,5.35171511 L9.6308315,5.35171511 L9.6308315,9.47089682 L12.7664511,9.47089682 C15.9954673,9.48771146 15.9020706,7.49568304 15.9020706,7.49568304 Z M9.6308315,15.7510637 L12.0199496,15.7510637 C14.5022405,15.6327535 14.4088438,13.9616213 14.4088438,13.9616213 C14.4088438,11.8851145 11.6651767,11.8512827 11.6651767,11.8512827 L9.6308315,11.8512827 L9.6308315,15.7510637 Z M15.3235488,11.0409385 C15.3235488,11.0409385 17.4698804,11.8680973 17.4512906,14.0629143 C17.4512906,14.0629143 17.7776191,17.6586137 12.5097782,18.0976177 L6.66319156,18.0976177 L6.66319156,3.02197472 L13.3637866,3.02197578 C13.3637866,3.02197578 18.9631072,3.00495856 18.9631072,7.27628238 C18.9631072,7.27628238 19.0936834,10.1799479 15.3235488,11.0409385 Z M0.195304304,21.0518487 L24.8049904,21.0518487 L24.8049904,0.0752809681 L0.195304304,0.0752809681 L0.195304304,21.0518487 Z" id="Shape"></path>
                </g>
                <g id="Group" transform="translate(12.712897, 11.780176) scale(-1, 1) rotate(-180.000000) translate(-12.712897, -11.780176) translate(0.212897, 0.780176)">
                    <path d="M15.9020706,7.49568304 C15.9020706,5.21659023 12.7664511,5.35171511 12.7664511,5.35171511 L9.6308315,5.35171511 L9.6308315,9.47089682 L12.7664511,9.47089682 C15.9954673,9.48771146 15.9020706,7.49568304 15.9020706,7.49568304 Z M9.6308315,15.7510637 L12.0199496,15.7510637 C14.5022405,15.6327535 14.4088438,13.9616213 14.4088438,13.9616213 C14.4088438,11.8851145 11.6651767,11.8512827 11.6651767,11.8512827 L9.6308315,11.8512827 L9.6308315,15.7510637 Z M15.3235488,11.0409385 C15.3235488,11.0409385 17.4698804,11.8680973 17.4512906,14.0629143 C17.4512906,14.0629143 17.7776191,17.6586137 12.5097782,18.0976177 L6.66319156,18.0976177 L6.66319156,3.02197472 L13.3637866,3.02197578 C13.3637866,3.02197578 18.9631072,3.00495856 18.9631072,7.27628238 C18.9631072,7.27628238 19.0936834,10.1799479 15.3235488,11.0409385 Z M0.195304304,21.0518487 L24.8049904,21.0518487 L24.8049904,0.0752809681 L0.195304304,0.0752809681 L0.195304304,21.0518487 Z" id="Shape"></path>
                </g>
                <g id="Group" transform="translate(69.546002, 11.780460) scale(-1, 1) rotate(-180.000000) translate(-69.546002, -11.780460) translate(57.046002, 0.780460)">
                    <path d="M19.7096086,17.0172264 L19.7096086,14.2316685 C19.7096086,14.2316685 16.7045652,15.9030032 13.3823763,15.9368351 C13.3823763,15.9368351 7.18594413,16.0462315 6.9059781,10.5638484 C6.9059781,10.5638484 6.68200528,5.52046927 13.3077934,5.23340487 C13.3077934,5.23340487 16.0888639,4.92952582 19.8589985,7.10732563 L19.8589985,4.22047473 C19.8589985,4.22047473 14.8010202,1.50258057 8.94032328,3.595902 C8.94032328,3.595902 4.01292111,5.22469367 3.82612778,10.5638484 C3.82612778,10.5638484 3.6207447,16.0549427 10.1907636,17.878217 C10.1907636,17.878217 11.9453667,18.4859751 15.099576,18.2159279 C15.099576,18.2159279 16.9845313,18.0469712 19.7096086,17.0172264 Z M0.120721353,0.0755645885 L24.7304075,0.0755645885 L24.7304075,21.0521323 L0.120721353,21.0521323 L0.120721353,0.0755645885 Z" id="Shape"></path>
                </g>
            </g>
        </g>
    </g>
</svg>