<?xml version="1.0" encoding="UTF-8"?>
<svg width="66px" height="45px" viewBox="0 0 66 45" version="1.1" xmlns="http://www.w3.org/2000/svg" xmlns:xlink="http://www.w3.org/1999/xlink">
    <!-- Generator: Sketch 48.1 (47250) - http://www.bohemiancoding.com/sketch -->
    <title>BBC_News</title>
    <desc>Created with Sketch.</desc>
    <defs></defs>
    <g id="Components/mobile/homepage" stroke="none" stroke-width="1" fill="none" fill-rule="evenodd" transform="translate(-79.000000, -226.000000)">
        <g id="Group-2" transform="translate(47.000000, 226.000000)">
            <g id="BBC_News" transform="translate(32.000000, 0.000000)">
                <rect id="rect3442" fill="#FFFFFF" x="0" y="0" width="66" height="45"></rect>
                <g id="g3414" transform="translate(16.000000, 10.000000)" fill="#003CD1" fill-rule="nonzero">
                    <path d="M18.8293993,5.82259734 C18.8285059,6.03502051 18.7561926,6.24905203 18.5454997,6.4152089 C18.3352535,6.58176769 17.9714522,6.7084976 17.3688361,6.7084976 L16.1560148,6.7084976 L16.1560148,4.95560605 L17.3148236,4.95560605 C17.8553927,4.95560605 18.2388355,5.05457605 18.4794356,5.20866328 C18.719143,5.36395694 18.8276133,5.56793109 18.8293993,5.82259734" id="path2436"></path>
                    <path d="M17.8469117,3.72371439 C18.0727807,3.57727133 18.1816984,3.36967622 18.1830378,3.05868591 C18.1821444,2.84505605 18.1142942,2.66200228 17.9437763,2.52561712 C17.7728124,2.38882964 17.4826637,2.29187145 17.0139619,2.29187145 L16.1560148,2.29187145 L16.1560148,3.95303452 L16.7447933,3.95303452 C17.2545619,3.95303452 17.6197025,3.87136434 17.8469117,3.72371439" id="path2438"></path>
                    <path d="M20.1377459,5.95133819 C20.140869,5.14107382 19.5422716,4.52512795 18.5838887,4.2885661 C18.8427909,4.16948057 19.047234,4.02384215 19.1972185,3.84642075 C19.3971977,3.60824968 19.4931697,3.31657053 19.4918303,2.97621109 C19.4931667,2.55860701 19.3105994,2.13255431 18.9191221,1.81351764 C18.5271982,1.49488336 17.9326166,1.28849521 17.1210936,1.28889753 L14.879808,1.28889694 L14.879808,7.71227616 L17.5090003,7.71227616 L17.5103367,7.71227616 C18.4486329,7.71227616 19.1074934,7.48295563 19.5315564,7.14299871 C19.956066,6.80465081 20.1381904,6.36049359 20.1377437,5.95133819 L20.1377459,5.95133819 Z M22.6361456,8.95704165 L12.1207164,8.95704165 L12.1207164,0.0384991494 L22.6361456,0.0384991494 L22.6361456,8.95704165 Z" id="path2440"></path>
                    <path d="M5.73075441,3.72371439 C5.95617754,3.57727133 6.06554119,3.36967622 6.06732645,3.05868591 C6.06688346,2.84505605 5.99858369,2.66200228 5.82806572,2.52561712 C5.65665513,2.38882964 5.36650644,2.29187145 4.89735869,2.29187145 L4.04030425,2.29187145 L4.04030425,3.95303452 L4.62908273,3.95303452 C5.13840542,3.95303452 5.50354602,3.87136434 5.73075441,3.72371439" id="path2442"></path>
                    <path d="M6.36327834,5.20866328 C6.12312425,5.05457605 5.73923549,4.95560605 5.19911304,4.95560605 L4.04030425,4.95560605 L4.04030425,6.7084976 L5.25312558,6.7084976 C5.85574165,6.7084976 6.21865031,6.58176769 6.42934322,6.4152089 C6.64003539,6.24905203 6.71279609,6.03502051 6.71324203,5.82259734 C6.7114553,5.56793109 6.60298575,5.36395694 6.36327834,5.20866328" id="path2444"></path>
                    <path d="M8.02203537,5.95133819 C8.02515846,5.14107382 7.42566844,4.52512795 6.4686248,4.2885661 C6.72663368,4.16948057 6.93107671,4.02384215 7.08061458,3.84642075 C7.28148709,3.60824968 7.37656647,3.31657053 7.37611978,2.97621109 C7.37656278,2.55860701 7.19444211,2.13255431 6.8029649,1.81351764 C6.41148769,1.49488336 5.81690602,1.28849521 5.00538304,1.28889753 L2.76365073,1.28889694 L2.76365073,7.71227616 L5.39239637,7.71227616 L5.3941831,7.71227616 C6.33292527,7.71227616 6.99133913,7.48295563 7.4154021,7.14299871 C7.83946581,6.80465081 8.02292873,6.36049359 8.02203611,5.95133819 L8.02203537,5.95133819 Z M10.520438,8.95704165 L0.00545470836,8.95704165 L0.00545470836,0.0384991494 L10.520438,0.0384991494 L10.520438,8.95704165 Z" id="path2446"></path>
                    <path d="M32.6641285,5.99277676 L32.4953958,6.08571194 C31.6811942,6.53389238 30.795572,6.77407479 29.9911908,6.7736722 C28.2690475,6.76763671 27.135236,5.84794305 27.1307721,4.50983994 C27.1325589,3.20030118 28.3168102,2.23112172 29.9474453,2.22790322 C30.7781624,2.22830248 31.5303171,2.4218196 32.4244211,2.86356263 L32.58869,2.94483049 L32.58869,1.7495494 L32.5181612,1.72460581 C31.5102296,1.36614217 30.7295071,1.20642271 29.958605,1.20682503 C28.7663171,1.20642577 27.7320496,1.56126552 26.9950719,2.16313034 C26.2585408,2.76539748 25.8206402,3.61549133 25.8215328,4.59191244 C25.8219758,5.27222886 26.1331076,6.06921716 26.8000033,6.70206019 C27.4646663,7.33490322 28.4891141,7.79595781 29.8938795,7.79555523 L29.8987893,7.79555523 C31.0638472,7.79555523 31.8717997,7.56180956 32.6020809,7.23714032 L32.6641285,7.209783 L32.6641285,5.99277676 Z M34.7523051,8.95704165 L24.2373218,8.95704165 L24.2373218,0.0384991494 L34.7523051,0.0384991494 L34.7523051,8.95704165 Z" id="path2448"></path>
                </g>
                <g id="g3431" transform="translate(10.000000, 24.000000)" fill="#003CD1" fill-rule="nonzero">
                    <polygon id="path2418" points="9.35162698 0.141988755 10.9559756 0.141988755 10.9559756 10.4389126 9.50364787 10.4389126 1.61862953 2.50824847 1.61862953 10.4389126 0.0319689832 10.4389126 0.0319689832 0.141988755 1.39920264 0.141988755 9.35162698 8.13943766 9.35162698 0.141988755"></polygon>
                    <polygon id="path2420" points="13.9987877 0.141988755 20.6848478 0.141988755 20.6848478 1.45347012 15.6872736 1.45347012 15.6872736 4.593596 20.5160948 4.593596 20.5160948 5.91300786 15.6872736 5.91300786 15.6872736 9.11240497 20.8449955 9.11240497 20.8449955 10.4243033 13.9987877 10.4243033"></polygon>
                    <polygon id="path2422" points="38.7046063 0.141988755 40.3883116 0.141988755 35.6197247 10.4835753 35.2487553 10.4835753 31.3927738 2.10962849 27.4966355 10.4835753 27.1342705 10.4835753 22.3809822 0.141988755 24.081898 0.141988755 27.3317071 7.23993322 30.6039849 0.141988755 32.2002067 0.141988755 35.4873038 7.23993322 38.7046063 0.141988755"></polygon>
                    <path d="M44.9632857,6.12463127 L43.6801894,5.44384674 C42.8751468,5.01475578 42.3024386,4.59276132 41.9620647,4.17744499 C41.62169,3.76212865 41.4510251,3.28420167 41.4510251,2.74366405 C41.4510251,1.93264947 41.7732333,1.27440405 42.4181274,0.768511507 C43.0620662,0.262201276 43.8996163,0.00883697309 44.9298223,0.00883697309 C45.9141351,0.00883697309 46.817656,0.250513689 47.639909,0.73303175 L47.639909,2.40640235 C46.7899291,1.69264211 45.8749343,1.33576233 44.8958805,1.33576233 C44.3442058,1.33576233 43.891011,1.44720899 43.5362954,1.67010231 C43.1820573,1.89257863 43.0042214,2.1776649 43.0042214,2.52536182 C43.0042214,2.83340558 43.135208,3.12266664 43.396226,3.39147424 C43.6577207,3.66111653 44.0774521,3.94369876 44.6563753,4.23922026 L45.9461641,4.90581385 C47.3846284,5.65630484 48.103621,6.61132411 48.103621,7.7708703 C48.103621,8.5964942 47.7871493,9.26726119 47.154206,9.78317196 C46.5207851,10.2990827 45.6975761,10.5566204 44.6845805,10.5566204 C43.5200416,10.5566204 42.4592401,10.2448203 41.5021766,9.61913219 L41.5021766,7.74666113 C42.4133468,8.75552519 43.4688901,9.25974838 44.6678484,9.25974838 C45.1970544,9.25974838 45.6373418,9.13118768 45.9891895,8.87406766 C46.3410365,8.61694696 46.5169604,8.29512925 46.5169604,7.90819617 C46.5169604,7.28167342 45.99875,6.68729101 44.9632857,6.12463127" id="path2424"></path>
                </g>
            </g>
        </g>
    </g>
</svg>