<?xml version="1.0" encoding="UTF-8"?>
<svg width="128px" height="14px" viewBox="0 0 128 14" version="1.1" xmlns="http://www.w3.org/2000/svg" xmlns:xlink="http://www.w3.org/1999/xlink">
    <!-- Generator: Sketch 48.1 (47250) - http://www.bohemiancoding.com/sketch -->
    <title>Daily_Telegraph</title>
    <desc>Created with Sketch.</desc>
    <defs></defs>
    <g id="Components/mobile/homepage" stroke="none" stroke-width="1" fill="none" fill-rule="evenodd" transform="translate(-47.000000, -439.000000)">
        <g id="Group-2" transform="translate(47.000000, 226.000000)" fill="#FFFFFF" fill-rule="nonzero">
            <g id="Daily_Telegraph" transform="translate(0.000000, 213.000000)">
                <path d="M8.1158036,2.55650099 C7.79652082,2.55650099 7.53012758,2.52298854 7.22840638,2.49014158 L7.22840638,7.35443839 C7.22840638,7.47018707 7.2105888,7.50303403 7.1391137,7.55237577 L4.15523287,9.31712725 C4.59944348,9.51506462 5.13222997,9.64735562 5.68355083,9.64735562 C7.56550673,9.64735562 9.69629429,8.69023048 10.6918258,6.29953294 C10.7447665,6.16724194 10.8686703,6.13439498 10.8686703,6.36517932 L10.8686703,6.53031727 C10.8686703,9.15179915 8.71929719,11.5096497 5.54106142,11.5096497 C2.07764203,11.5096497 0,9.08543974 0,6.56311669 C0,4.66707246 1.11743851,2.90255866 3.65782553,2.16062624 C3.76493579,2.12687611 3.78275336,2.17621784 3.71102226,2.22627261 C2.59255975,3.03389895 1.98834935,4.3533864 1.98834935,5.67263617 C1.98834935,7.07431232 2.59255975,8.45944614 3.94203635,9.20209159 L4.68801936,8.67368816 C4.93756783,8.4922931 4.98974056,8.32786817 4.98974056,8.06333371 L4.98974056,2.06118219 C4.17305044,1.78105612 3.44565301,1.61591816 2.76966031,1.61591816 C1.84662794,1.61591816 1.01135225,1.99458511 0.194662141,2.9188633 C0.106137459,3.01759431 0.0521727305,3.01759431 0.0521727305,2.9188633 C0.159282988,1.05561848 1.9527142,0 3.72883984,0 C5.77181952,0 7.65403141,0.924278189 9.71482867,0.924278189 C10.4422261,0.924278189 11.1889771,0.774779377 11.8102883,0.461806347 C11.898813,0.42895939 11.9163745,0.494605768 11.8809954,0.560299682 C11.2421226,2.04487755 9.67847672,2.55650099 8.1158036,2.55650099 Z M17.7787155,11.3617671 C17.7069844,11.427461 17.7069844,11.4111564 17.6537877,11.3783094 L16.2328872,10.2076553 C16.0903978,10.0916689 16.0196395,9.99317561 16.0196395,9.77869592 L16.0196395,5.2602191 C16.0196395,5.2110675 16.0196395,5.16101273 15.9486764,5.11162346 L15.4690866,4.71551102 C15.4151731,4.68361478 15.3444148,4.66707246 15.2737077,4.69991942 L14.3684417,5.09508114 L14.3684417,9.3506397 C14.3684417,9.41633361 14.3499073,9.48221767 14.4213824,9.53136926 L14.8302139,9.86088461 C14.9366073,9.94312084 15.1134007,10.0425173 15.2737077,9.99317561 L15.4151731,9.94312084 C15.5929904,9.87718925 15.6293936,9.97592026 15.5222833,10.058822 L13.8888519,11.3617671 C13.8171208,11.427461 13.7993544,11.4111564 13.7464137,11.3783094 L12.3073884,10.191113 C12.1305951,10.058822 12.1305951,10.0260226 12.1305951,9.81154287 L12.1305951,2.49014158 C12.1305951,2.40795289 12.1305951,2.39069754 12.0412512,2.32505116 L11.8634338,2.17621784 C11.6863332,2.02833524 11.6156261,2.06118219 11.384612,2.16062624 L11.0289261,2.30850884 C10.9757806,2.32505116 10.9225839,2.25911957 11.0111085,2.17621784 L12.8933204,0.708895322 C12.9650515,0.643201408 12.9650515,0.659743725 13.0179923,0.692590682 L14.1549892,1.66597293 C14.2974786,1.7975509 14.3684417,1.87978713 14.3684417,2.09402915 L14.3684417,4.84775449 L16.7299873,3.46285834 C16.8017184,3.4297737 16.8724767,3.4297737 16.9256735,3.47916298 L18.0804879,4.46913508 C18.2397197,4.60071305 18.2750989,4.69991942 18.2750989,4.86429681 L18.2750989,9.38282116 C18.2750989,9.46572289 18.2750989,9.48221767 18.3643916,9.54791158 L18.8086022,9.89373157 C18.9857027,10.0425173 19.056461,10.0094803 19.2874239,9.91093938 L19.6431098,9.76239128 C19.6960506,9.74584896 19.7502201,9.81154287 19.6606714,9.89373157 L17.7787155,11.3617671 Z M25.3441711,5.90365818 L22.2002904,7.73405604 L22.2002904,9.13549451 C22.2002904,9.2668348 22.218108,9.31712725 22.3427799,9.36627884 L23.3551049,9.86088461 C23.5319495,9.94312084 23.8346947,10.0260226 24.0125632,9.92657852 L24.9539252,9.41633361 C25.113157,9.33343189 25.2380848,9.38282116 25.1487921,9.44941825 L22.5737939,11.3783094 C22.5198804,11.427461 22.5384148,11.4111564 22.4674517,11.3783094 L20.1756403,10.2567594 C19.9977718,10.1748083 19.9448822,10.1410582 19.9448822,9.91093938 L19.9448822,4.69991942 C19.9448822,4.61701769 19.9809782,4.58417073 20.0863477,4.55132378 L23.8346947,3.4297737 C23.8878914,3.4135166 23.9408321,3.39697428 23.9761601,3.46285834 L25.3795502,5.77136718 C25.4149294,5.82142195 25.4149294,5.87081123 25.3441711,5.90365818 Z M22.2366936,4.30399712 L22.2002904,4.31963627 L22.2002904,7.52024184 L23.4436808,6.56311669 C23.5151559,6.51401263 23.5151559,6.48021497 23.4797767,6.4317764 L22.2366936,4.30399712 Z M38.18281,9.30058493 L35.6253734,11.3454625 C35.5538983,11.3946141 35.5007015,11.427461 35.4299944,11.3946141 C33.9016765,10.6857188 32.587835,10.2896063 31.2559712,10.2896063 C30.1543023,10.2896063 29.0712701,10.635664 27.8635149,11.3783094 C27.7564046,11.4440034 27.6856975,11.427461 27.7564046,11.3126631 C28.3962502,10.3555379 29.2490875,9.3506397 30.3146092,8.88816786 C30.3321708,8.82252148 30.3507052,8.60804178 30.3507052,8.31066036 L30.3507052,3.46285834 C30.3507052,3.39697428 30.3863403,3.36412733 30.4570987,3.33128037 L32.4814928,2.19347319 C32.0372821,2.27566189 31.5401308,2.34225897 31.1134818,2.34225897 C29.266905,2.34225897 28.3252871,1.48457787 27.9874187,0.132291 C27.9696012,0.0656939137 28.0049803,0.0493892737 28.058177,0.0656939137 C29.0005118,0.494605768 29.7818228,0.643201408 30.5456233,0.643201408 C31.8240856,0.643201408 33.6531008,0 34.7725873,0 C37.0279955,0 38.2721026,0.87422342 38.2721026,3.7273928 L38.2721026,9.11895219 C38.2721026,9.20209159 38.2357507,9.25124319 38.18281,9.30058493 Z M36.033488,3.7273928 C36.033488,2.20996797 35.5185191,1.7975509 34.7193906,1.7975509 C34.1326906,1.7975509 33.3867588,2.0120306 32.587835,2.17621784 L32.587835,7.12341638 C32.587835,7.20655578 32.5525071,7.27224969 32.4993103,7.30599982 L30.3863403,8.87096004 C30.9356644,8.65738352 31.5401308,8.55865251 32.1436244,8.55865251 C33.4399043,8.55865251 34.8086833,9.00320351 35.9095842,9.48221767 C35.9981089,9.53136926 36.033488,9.48221767 36.033488,9.39907826 L36.033488,3.7273928 Z M44.632619,11.3617671 C44.5619119,11.427461 44.5440943,11.4111564 44.4908976,11.3783094 L42.8743109,10.058822 L40.9560031,11.3783094 C40.8852448,11.427461 40.8674272,11.4111564 40.7967201,11.3617671 L39.5711473,10.3389956 C39.3755124,10.191113 39.3579508,10.1573629 39.3579508,9.95937795 L39.3579508,5.14513591 C39.3579508,5.06223418 39.4287091,5.04597708 39.4640371,5.02943476 L43.5849148,3.44631602 C43.6556731,3.4135166 43.7263802,3.4135166 43.7981113,3.47916298 L44.8990122,4.5019345 C45.0582952,4.64981711 45.1129767,4.73295651 45.1129767,4.83149738 L45.1129767,9.48221767 L45.4325155,9.74584896 C45.8228126,10.058822 45.8757021,10.0425173 46.0535707,9.95937795 L46.3024024,9.84434229 C46.4624021,9.76239128 46.586306,9.82803765 46.4438678,9.94312084 L44.632619,11.3617671 Z M42.8743109,5.22737214 C42.8743109,5.1279281 42.8557765,5.0787765 42.7682247,4.99658781 L42.1283791,4.40344117 C42.093,4.36969104 42.093,4.38689885 42.0390864,4.40344117 L41.5948246,4.58417073 L41.5948246,9.3506397 C41.5948246,9.51506462 41.6312278,9.59730085 41.7558996,9.69650722 L41.9869137,9.89373157 C42.1461455,10.0260226 42.3415756,10.0916689 42.5725897,9.99317561 L42.8743109,9.86088461 L42.8743109,5.22737214 Z M48.7710583,11.3617671 C48.699276,11.427461 48.6817656,11.4111564 48.6285689,11.3783094 L47.1908236,10.191113 C47.0127502,10.058822 47.0127502,10.0260226 47.0127502,9.81154287 L47.0127502,5.2602191 C47.0127502,5.17822054 47.0127502,5.16101273 46.9244303,5.09508114 L46.746613,4.94719853 C46.5687444,4.79865043 46.4977813,4.83149738 46.2670232,4.92999072 L45.9110813,5.0787765 C45.8581917,5.09508114 45.804995,5.02943476 45.8935197,4.94719853 L47.7764996,3.47916298 C47.8482307,3.4135166 47.8482307,3.4297737 47.9004034,3.46285834 L49.0374003,4.43533742 C49.1798897,4.56762842 49.2505968,4.64981711 49.2505968,4.86429681 L49.2505968,9.3506397 C49.2505968,9.41633361 49.2330865,9.48221767 49.3037936,9.53136926 L49.712625,9.86088461 C49.8197353,9.94312084 49.9965798,10.0425173 50.1558628,9.99317561 L50.2983522,9.94312084 C50.4761696,9.87718925 50.5115488,9.97592026 50.4054113,10.058822 L48.7710583,11.3617671 Z M47.8650243,3.06769661 C47.8128515,3.11680067 47.7940612,3.10049603 47.7411204,3.06769661 L46.390671,1.96268886 C46.3552919,1.92889119 46.3552919,1.89609177 46.4084886,1.8467025 L47.7411204,0.75823706 C47.7940612,0.725390103 47.8128515,0.725390103 47.8650243,0.75823706 L49.2152689,1.86324481 C49.2684144,1.89609177 49.2684144,1.92889119 49.2152689,1.96268886 L47.8650243,3.06769661 Z M52.767213,11.3617671 C52.6962498,11.427461 52.6786883,11.4111564 52.6254915,11.3783094 L51.1857495,10.191113 C51.0089049,10.058822 51.0089049,10.0260226 51.0089049,9.81154287 L51.0089049,2.49014158 C51.0089049,2.40795289 51.0089049,2.39069754 50.9203802,2.32505116 L50.7425628,2.17621784 C50.5646943,2.02833524 50.4939872,2.06118219 50.2629731,2.16062624 L49.9080552,2.30850884 C49.8540904,2.32505116 49.8009449,2.25911957 49.8904936,2.17621784 L51.7724495,0.708895322 C51.8434126,0.643201408 51.8434126,0.659743725 51.8973773,0.692590682 L53.0333502,1.66597293 C53.1758396,1.7975509 53.2468027,1.87978713 53.2468027,2.09402915 L53.2468027,9.3506397 C53.2468027,9.41633361 53.2289851,9.48221767 53.3007162,9.53136926 L53.7085749,9.86088461 C53.8147124,9.94312084 53.9927857,10.0425173 54.1520687,9.99317561 L54.2952749,9.94312084 C54.4723755,9.87718925 54.5077034,9.97592026 54.4013612,10.058822 L52.767213,11.3617671 Z M60.8486614,12.4996218 L58.8947184,13.9669444 C58.8417777,14.016096 58.8054257,14.0005043 58.7710706,13.983249 C57.7401599,13.3400476 56.9241866,13.0436169 56.0357654,13.0436169 C55.4137374,13.0436169 54.7926823,13.1584149 53.9927857,13.3565899 C53.9217714,13.3738453 53.9042098,13.3237429 53.939589,13.2744012 C54.7740967,12.1036995 55.8047513,11.7413848 56.7641868,11.7413848 C58.1843705,11.7413848 59.5167464,12.5489636 60.0495329,12.8782888 L60.1026784,12.8454418 C60.2441438,12.5489636 60.2983645,12.2678868 60.2983645,12.004303 C60.2983645,11.1638297 59.5523815,10.4877814 58.6285811,10.058822 L56.7277837,11.3617671 C56.639259,11.4111564 56.6216974,11.4111564 56.5685519,11.3783094 L55.2897824,10.3061486 C55.111965,10.1573629 55.111965,10.1573629 55.111965,9.92657852 L55.111965,5.29301852 C55.111965,5.2110675 55.111965,5.19452518 55.0234403,5.1279281 L54.7740967,4.92999072 C54.5969961,4.78210811 54.526289,4.81495507 54.2952749,4.91368608 L53.939589,5.06223418 C53.8864435,5.0787765 53.8335027,5.01313012 53.9217714,4.92999072 L55.8047513,3.46285834 C55.8757656,3.39697428 55.8757656,3.4135166 55.9286551,3.44631602 L57.1366663,4.46913508 C57.2781317,4.60071305 57.3498629,4.68361478 57.3498629,4.89809447 L57.3498629,9.39907826 C57.3498629,9.48221767 57.3676804,9.56421622 57.42057,9.61355796 L57.8472702,9.97592026 C57.970918,10.0916689 58.2019321,10.0425173 58.3443703,9.97592026 L58.6285811,9.86088461 L58.6285811,5.27671388 C58.6285811,5.19452518 58.6285811,5.19452518 58.5400565,5.1279281 L58.2904568,4.92999072 C58.1133562,4.78210811 58.0594427,4.79865043 57.810867,4.86429681 L57.6691456,4.89809447 C57.6162561,4.91368608 57.5630594,4.84775449 57.651584,4.76580347 L59.3213674,3.46285834 C59.3921257,3.39697428 59.3921257,3.4135166 59.4452713,3.44631602 L60.6530265,4.46913508 C60.7954647,4.60071305 60.866223,4.68361478 60.866223,4.89809447 L60.866223,9.23493855 C61.6121548,9.74584896 61.9325128,10.2567594 61.9325128,10.767955 C61.9325128,11.3454625 61.6299724,11.9057622 60.8486614,12.4996218 Z M72.9970228,2.55650099 C72.677484,2.55650099 72.4110908,2.52298854 72.1093184,2.49014158 L72.1093184,7.35443839 C72.1093184,7.47018707 72.090784,7.50303403 72.0200257,7.55237577 L69.0371689,9.31712725 C69.4804067,9.51506462 70.013142,9.64735562 70.5644629,9.64735562 C72.44647,9.64735562 74.5772575,8.69023048 75.571765,6.29953294 C75.6259345,6.16724194 75.7506064,6.13439498 75.7506064,6.36517932 L75.7506064,6.53031727 C75.7506064,9.15179915 73.6012844,11.5096497 70.4220246,11.5096497 C66.9586053,11.5096497 64.8799904,9.08543974 64.8799904,6.56311669 C64.8799904,4.66707246 65.9994257,2.90255866 68.5390448,2.16062624 C68.645131,2.12687611 68.6637166,2.17621784 68.5919855,2.22627261 C67.472755,3.03389895 66.8692614,4.3533864 66.8692614,5.67263617 C66.8692614,7.07431232 67.472755,8.45944614 68.8229996,9.20209159 L69.5689314,8.70653512 C69.8353246,8.54234787 69.8716766,8.36071513 69.8716766,8.09708384 L69.8716766,2.06118219 C69.0540137,1.78105612 68.3258482,1.61591816 67.6513915,1.61591816 C66.7275912,1.61591816 65.8932883,1.99458511 65.0765982,2.9188633 C64.9870495,3.01759431 64.933136,3.01759431 64.933136,2.9188633 C65.0402462,1.05561848 66.8339334,0 68.6105199,0 C70.6530387,0 72.5349946,0.924278189 74.5950239,0.924278189 C75.3242133,0.924278189 76.0691723,0.774779377 76.6912003,0.461806347 C76.780493,0.42895939 76.7972866,0.494605768 76.7629314,0.560299682 C76.1230859,2.04487755 74.5596959,2.55650099 72.9970228,2.55650099 Z M81.9836861,5.90365818 L78.8405734,7.73405604 L78.8405734,9.13549451 C78.8405734,9.2668348 78.858391,9.31712725 78.9822949,9.36627884 L79.9943639,9.86088461 C80.1721813,9.94312084 80.4749777,10.0260226 80.651771,9.92657852 L81.593389,9.41633361 C81.753696,9.33343189 81.8773438,9.38282116 81.7890239,9.44941825 L79.2130529,11.3783094 C79.1601122,11.427461 79.1776738,11.4111564 79.1069155,11.3783094 L76.8161281,10.2567594 C76.6380548,10.1748083 76.585114,10.1410582 76.585114,9.91093938 L76.585114,4.69991942 C76.585114,4.61701769 76.6194692,4.58417073 76.7265795,4.55132378 L80.4749777,3.4297737 C80.5281232,3.4135166 80.5810639,3.39697428 80.6174159,3.46285834 L82.019782,5.77136718 C82.0561852,5.82142195 82.0561852,5.87081123 81.9836861,5.90365818 Z M78.8759014,4.30399712 L78.8405734,4.31963627 L78.8405734,7.52024184 L80.0839126,6.56311669 C80.1546709,6.51401263 80.1546709,6.48021497 80.1192917,6.4317764 L78.8759014,4.30399712 Z M84.4708763,11.3617671 C84.3994012,11.427461 84.3826077,11.4111564 84.3294109,11.3783094 L82.8896689,10.191113 C82.7128243,10.058822 82.7128243,10.0260226 82.7128243,9.81154287 L82.7128243,2.49014158 C82.7128243,2.40795289 82.7128243,2.39069754 82.6232756,2.32505116 L82.4464822,2.17621784 C82.2686137,2.02833524 82.1968826,2.06118219 81.9668925,2.16062624 L81.6112066,2.30850884 C81.5580098,2.32505116 81.5040963,2.25911957 81.593389,2.17621784 L83.4756009,0.708895322 C83.5463592,0.643201408 83.5463592,0.659743725 83.6002727,0.692590682 L84.7372696,1.66597293 C84.879759,1.7975509 84.9504661,1.87978713 84.9504661,2.09402915 L84.9504661,9.3506397 C84.9504661,9.41633361 84.9319317,9.48221767 85.0028948,9.53136926 L85.4124943,9.86088461 C85.5185806,9.94312084 85.6964491,10.0425173 85.8557321,9.99317561 L85.9981703,9.94312084 C86.1760389,9.87718925 86.21065,9.97592026 86.1045638,10.058822 L84.4708763,11.3617671 Z M91.8773561,5.90365818 L88.7342435,7.73405604 L88.7342435,9.13549451 C88.7342435,9.2668348 88.751037,9.31712725 88.8759137,9.36627884 L89.8880339,9.86088461 C90.0651345,9.94312084 90.3676237,10.0260226 90.5446731,9.92657852 L91.486291,9.41633361 C91.646342,9.33343189 91.7702458,9.38282116 91.6817211,9.44941825 L89.105955,11.3783094 C89.0537822,11.427461 89.0713438,11.4111564 88.9998687,11.3783094 L86.7087742,10.2567594 C86.5309568,10.1748083 86.4770433,10.1410582 86.4770433,9.91093938 L86.4770433,4.69991942 C86.4770433,4.61701769 86.5131392,4.58417073 86.6194815,4.55132378 L90.3676237,3.4297737 C90.4207692,3.4135166 90.473966,3.39697428 90.5093451,3.46285834 L91.9127352,5.77136718 C91.9480632,5.82142195 91.9480632,5.87081123 91.8773561,5.90365818 Z M88.7678306,4.30399712 L88.7342435,4.31963627 L88.7342435,7.52024184 L89.9775826,6.56311669 C90.0473169,6.51401263 90.0473169,6.48021497 90.0119378,6.4317764 L88.7678306,4.30399712 Z M98.3421667,12.4996218 L96.3882237,13.9669444 C96.3353341,14.016096 96.299955,14.0005043 96.2645758,13.983249 C95.2336652,13.3400476 94.4169751,13.0436169 93.5293219,13.0436169 C92.9072427,13.0436169 92.2852147,13.1584149 91.486291,13.3565899 C91.4153279,13.3738453 91.3977663,13.3237429 91.4331455,13.2744012 C92.2676532,12.1036995 93.2983078,11.7413848 94.2576921,11.7413848 C95.6786438,11.7413848 97.0095349,12.5489636 97.5430381,12.8782888 L97.5962349,12.8454418 C97.7377003,12.5489636 97.7918698,12.2678868 97.7918698,12.004303 C97.7918698,11.1638297 97.0458868,10.4877814 96.1220864,10.058822 L94.2035226,11.3783094 C94.1328155,11.427461 94.0796188,11.4111564 94.026678,11.3617671 L92.818718,10.3389956 C92.6408495,10.191113 92.6055215,10.1254191 92.6055215,9.95937795 L92.6055215,5.14513591 C92.6055215,5.06223418 92.6762286,5.04597708 92.7118638,5.02943476 L96.7971063,3.46285834 C96.9042166,3.4135166 96.9741557,3.4135166 97.0095349,3.44631602 L98.1475557,4.5019345 C98.2890211,4.63351247 98.3597283,4.73295651 98.3597283,4.84775449 L98.3597283,9.23493855 C99.1057113,9.74584896 99.426018,10.2567594 99.426018,10.767955 C99.426018,11.3454625 99.1235288,11.9057622 98.3421667,12.4996218 Z M96.1220864,5.19452518 C96.1220864,5.1279281 96.1043201,5.0787765 96.0335618,5.01313012 L95.3761546,4.40344117 C95.3407755,4.36969104 95.3229579,4.38689885 95.2690444,4.40344117 L94.8423953,4.58417073 L94.8423953,9.31712725 C94.8423953,9.58075854 94.9151504,9.61355796 95.1982861,9.86088461 C95.3583371,9.99317561 95.4458889,10.0425173 95.6069127,10.0425173 C95.7494021,10.0425173 95.9796482,9.94312084 96.1220864,9.86088461 L96.1220864,5.19452518 Z M104.131804,5.55688749 C104.043279,5.62348457 103.954703,5.65633153 103.866435,5.65633153 C103.776886,5.65633153 103.687593,5.62348457 103.600041,5.55688749 L102.515985,4.69991942 L102.409848,4.78210811 L102.409848,9.36627884 C102.409848,9.46572289 102.409848,9.48221767 102.480606,9.53136926 L102.764766,9.76239128 C103.066538,9.99317561 103.137296,10.0260226 103.457603,9.91093938 L103.6708,9.82803765 C103.812521,9.77869592 103.847849,9.84434229 103.759324,9.92657852 L101.929285,11.3617671 C101.859551,11.427461 101.841016,11.4111564 101.78782,11.3783094 L100.38443,10.2076553 C100.225147,10.0753643 100.171233,10.0260226 100.171233,9.84434229 L100.171233,5.14513591 L99.7455568,4.73295651 C99.7092049,4.69991942 99.6924113,4.69991942 99.6384466,4.73295651 L99.1057113,5.01313012 C98.9464283,5.09508114 98.8925147,4.98004549 98.999625,4.89809447 L100.82864,3.46285834 C100.899398,3.4135166 100.93575,3.4135166 100.97113,3.44631602 L102.214213,4.58417073 L103.439785,3.46285834 C103.510749,3.4135166 103.563689,3.39697428 103.634396,3.46285834 L104.576014,4.2711977 C104.753883,4.41903278 104.859969,4.5019345 104.967079,4.5019345 C105.037787,4.5019345 105.127335,4.46913508 105.234446,4.40344117 L105.481997,4.25394235 C105.642304,4.15544902 105.713011,4.30399712 105.624487,4.38689885 L104.131804,5.55688749 Z M110.685958,11.3617671 C110.6152,11.427461 110.596666,11.4111564 110.543469,11.3783094 L108.926882,10.058822 L107.009291,11.3783094 C106.938584,11.427461 106.921022,11.4111564 106.849291,11.3617671 L105.624487,10.3389956 C105.429108,10.191113 105.41129,10.1573629 105.41129,9.95937795 L105.41129,5.14513591 C105.41129,5.06223418 105.481997,5.04597708 105.517632,5.02943476 L109.639227,3.44631602 C109.709217,3.4135166 109.779975,3.4135166 109.850683,3.47916298 L110.9523,4.5019345 C111.112607,4.64981711 111.165548,4.73295651 111.165548,4.83149738 L111.165548,9.48221767 L111.485087,9.74584896 C111.876101,10.058822 111.930065,10.0425173 112.107115,9.95937795 L112.35569,9.84434229 C112.514973,9.76239128 112.639901,9.82803765 112.497412,9.94312084 L110.685958,11.3617671 Z M108.926882,5.22737214 C108.926882,5.1279281 108.910089,5.0787765 108.821513,4.99658781 L108.181923,4.40344117 C108.146544,4.36969104 108.146544,4.38689885 108.092374,4.40344117 L107.649188,4.58417073 L107.649188,9.3506397 C107.649188,9.51506462 107.684516,9.59730085 107.80842,9.69650722 L108.039434,9.89373157 C108.198717,10.0260226 108.39512,10.0916689 108.626134,9.99317561 L108.926882,9.86088461 L108.926882,5.22737214 Z M119.051566,10.1573629 L117.435748,11.3126631 C117.257111,11.4440034 117.221527,11.4111564 117.008331,11.2961207 L115.321754,10.3389956 L115.321754,12.2678868 L115.800575,12.6484076 C115.854489,12.6803039 115.854489,12.7141015 115.800575,12.7634433 L114.397953,13.9669444 C114.362574,13.983249 114.327195,14.016096 114.255464,13.9669444 L112.692842,12.7962902 C112.639901,12.7634433 112.658436,12.7304062 112.692842,12.6803039 L113.084112,12.2678868 L113.084112,5.17822054 L112.692842,4.73295651 C112.67528,4.71551102 112.658436,4.71551102 112.622084,4.73295651 L112.08858,4.98004549 C111.965393,5.04597708 111.876101,4.96374085 111.982238,4.88155215 L113.793692,3.46285834 C113.846888,3.4135166 113.918364,3.4135166 113.953743,3.44631602 L115.26784,4.64981711 L117.648176,3.46285834 C117.719907,3.4297737 117.772848,3.44631602 117.789642,3.46285834 L118.980808,4.4856774 C119.069128,4.56762842 119.176238,4.69991942 119.176238,4.84775449 L119.176238,9.89373157 C119.176238,10.0094803 119.176238,10.0753643 119.051566,10.1573629 Z M116.937572,5.27671388 C116.937572,5.17822054 116.902193,5.09508114 116.831486,5.02943476 L116.334079,4.58417073 C116.2987,4.55132378 116.263372,4.55132378 116.209407,4.56762842 L115.321754,4.88155215 L115.321754,10.1082113 L115.819161,10.2567594 C116.226968,10.3718426 116.404837,10.3555379 116.582654,10.2076553 L116.760472,10.058822 C116.920779,9.92657852 116.937572,9.77869592 116.937572,9.51506462 L116.937572,5.27671388 Z M126.070207,11.3617671 C125.998475,11.427461 125.998475,11.4111564 125.945586,11.3783094 L124.524378,10.2076553 C124.382913,10.0916689 124.312155,9.99317561 124.312155,9.77869592 L124.312155,5.2602191 C124.312155,5.2110675 124.312155,5.16101273 124.240423,5.11162346 L123.760834,4.71551102 C123.707688,4.68361478 123.63693,4.66707246 123.566223,4.69991942 L122.659216,5.09508114 L122.659216,9.3506397 C122.659216,9.41633361 122.641398,9.48221767 122.713129,9.53136926 L123.120988,9.86088461 C123.228098,9.94312084 123.405199,10.0425173 123.566223,9.99317561 L123.707688,9.94312084 C123.885505,9.87718925 123.920117,9.97592026 123.813774,10.058822 L122.180394,11.3617671 C122.109636,11.427461 122.091101,11.4111564 122.037905,11.3783094 L120.599187,10.191113 C120.422086,10.058822 120.422086,10.0260226 120.422086,9.81154287 L120.422086,2.49014158 C120.422086,2.40795289 120.422086,2.39069754 120.332793,2.32505116 L120.154976,2.17621784 C119.977107,2.02833524 119.9064,2.06118219 119.676359,2.16062624 L119.320468,2.30850884 C119.267528,2.32505116 119.213358,2.25911957 119.302907,2.17621784 L121.184863,0.708895322 C121.256594,0.643201408 121.256594,0.659743725 121.309791,0.692590682 L122.446787,1.66597293 C122.589226,1.7975509 122.659216,1.87978713 122.659216,2.09402915 L122.659216,4.84775449 L125.021786,3.46285834 C125.093517,3.4297737 125.163251,3.4297737 125.217164,3.47916298 L126.371979,4.46913508 C126.531262,4.60071305 126.566641,4.69991942 126.566641,4.86429681 L126.566641,9.38282116 C126.566641,9.46572289 126.566641,9.48221767 126.655166,9.54791158 L127.1004,9.89373157 C127.277194,10.0425173 127.347952,10.0094803 127.578966,9.91093938 L127.934652,9.76239128 C127.988566,9.74584896 128.040994,9.81154287 127.95247,9.89373157 L126.070207,11.3617671 Z" id="path11283"></path>
            </g>
        </g>
    </g>
</svg>