<?xml version="1.0" encoding="UTF-8"?>
<svg width="107px" height="20px" viewBox="0 0 107 20" version="1.1" xmlns="http://www.w3.org/2000/svg" xmlns:xlink="http://www.w3.org/1999/xlink">
    <!-- Generator: Sketch 48.1 (47250) - http://www.bohemiancoding.com/sketch -->
    <title>radio-times-seeklogo.com</title>
    <desc>Created with Sketch.</desc>
    <defs>
        <polygon id="path-1" points="0.0639961699 19.2949074 0.0639961699 0.189091917 106.660283 0.189091917 106.660283 19.2949074"></polygon>
    </defs>
    <g id="Components/mobile/homepage" stroke="none" stroke-width="1" fill="none" fill-rule="evenodd" transform="translate(-213.000000, -343.000000)">
        <g id="Group-2" transform="translate(47.000000, 226.000000)">
            <g id="radio-times-seeklogo.com" transform="translate(166.000000, 117.000000)">
                <g id="Group-11">
                    <mask id="mask-2" fill="white">
                        <use xlink:href="#path-1"></use>
                    </mask>
                    <g id="Clip-2"></g>
                    <path d="M38.4499655,0.256624745 C39.6520269,-0.0424492059 41.0386106,0.677257785 41.3553916,1.76936008 C41.6572402,2.64342782 41.4364534,3.73745963 40.5991702,4.31245342 C39.9741409,4.84403325 39.0248644,4.8855177 38.2323785,4.70993234 C37.4121609,4.44655432 36.7274019,3.77604982 36.619675,2.97723294 C36.3284925,1.81277404 37.1540431,0.538333111 38.4499655,0.256624745" id="Fill-1" fill="#FFFFFF" mask="url(#mask-2)"></path>
                    <path d="M30.671231,15.3222338 C30.6733642,15.7534792 30.037669,15.8924038 29.6622248,15.777598 C29.0670604,15.5701758 28.8121423,14.9691336 28.7246809,14.4385185 C28.5166933,12.9537611 28.5358922,11.4429553 28.7332137,9.9581978 C28.8462736,9.43433601 29.0638606,8.81978728 29.669691,8.61332978 C30.0131371,8.48984118 30.3672492,8.61140027 30.6584318,8.78602087 C30.6914965,10.9634722 30.665898,13.1438178 30.671231,15.3222338 Z M35.3962816,0.283637876 C33.8273088,0.683046313 32.2391372,1.0110629 30.6733642,1.42301315 C30.6744309,2.83348449 30.6701644,4.24492059 30.6765641,5.65828619 C29.4126397,4.72922744 27.4852884,4.94340298 26.2608283,5.824224 C24.9830381,6.82081558 24.3217444,8.32583288 24.0870918,9.80673132 C23.7447123,11.6754611 23.7649777,13.6088295 24.1958852,15.4621232 C24.3356102,16.1335925 24.6513247,16.7626126 25.0203692,17.3530424 C25.7285935,18.499171 27.1525083,19.2690452 28.6148208,19.2121247 C29.6270269,19.2458911 30.588036,18.7480777 31.1704012,18.0138994 C31.2450634,18.3554225 31.3175924,18.7008047 31.3645229,19.0481164 C32.7095091,19.0490811 34.0555618,19.0490811 35.400548,19.0481164 C35.3973482,12.792647 35.4069476,6.53814246 35.3962816,0.283637876 Z" id="Fill-3" fill="#FFFFFF" mask="url(#mask-2)"></path>
                    <path d="M7.0811762,8.06052535 C6.96065008,8.53518465 6.5532078,8.92880456 6.03057241,9.05518742 C5.60499788,9.13719157 5.16875733,9.11017844 4.73678318,9.12079074 C4.72078414,7.47106024 4.73358337,5.82132974 4.72931696,4.17352874 C5.53353549,4.11950248 6.52014311,4.15712791 6.93611822,4.89902426 C7.39582404,5.89175683 7.34782691,7.02727308 7.0811762,8.06052535 Z M9.64422281,11.0300402 C10.1039286,10.7435081 10.5838999,10.4511874 10.8868151,10.0141536 C11.6995665,9.04264561 11.9118204,7.78749977 11.980083,6.60278103 C12.0131477,5.03408992 11.7016997,3.30235527 10.392978,2.17069803 C9.18665019,1.12008018 7.43955475,0.714883217 5.80231941,0.720671746 C3.86856847,0.700411897 1.93481754,0.716812727 0.00106660283,0.711024199 C0.00106660283,6.82370985 0.0031998085,12.9363955 0,19.0481164 C1.57750559,19.0481164 3.15394457,19.0490811 4.72931696,19.0481164 C4.73145016,16.8156741 4.72825036,14.5803375 4.72931696,12.3478951 C4.99276786,12.3478951 5.25408555,12.3469304 5.51433664,12.3469304 C6.39961699,14.5716547 7.17823706,16.8262864 8.05178478,19.0539049 C9.67408769,19.0394336 11.2963906,19.0558344 12.9197601,19.0452221 C11.8382248,16.3699574 10.7086924,13.709164 9.64422281,11.0300402 Z" id="Fill-4" fill="#FFFFFF" mask="url(#mask-2)"></path>
                    <path d="M49.3559795,0.737072575 C54.8297852,0.73803733 60.3025243,0.73803733 65.7752635,0.737072575 C65.7752635,1.94687494 65.7752635,3.15667731 65.7752635,4.36551492 C63.794582,4.37516247 61.8085675,4.36069115 59.8278861,4.37419772 C59.8385521,9.26453919 59.8278861,14.1558454 59.8321525,19.0461869 C58.2365146,19.0500459 56.6408768,19.0490811 55.0463056,19.0471516 C55.0484388,14.1548807 55.0420392,9.26357443 55.0484388,4.37130345 C53.1520189,4.36551492 51.2534659,4.36937394 49.3559795,4.36840919 C49.3559795,3.15764207 49.3559795,1.94687494 49.3559795,0.737072575" id="Fill-5" fill="#FFFFFF" mask="url(#mask-2)"></path>
                    <path d="M17.0869774,15.821012 C16.7563305,15.0270189 16.7861954,14.1307618 17.004849,13.3145793 C17.104043,12.6257445 18.1770455,12.3575427 18.7167465,12.7444093 C18.7498112,13.7911681 18.7071471,14.8408212 18.7359454,15.8895096 C18.2794393,16.2319975 17.4229573,16.3632041 17.0869774,15.821012 Z M22.7837031,9.58869676 C22.7207735,8.45221575 22.5810486,7.18259859 21.6552373,6.32686119 C20.6120997,5.22125232 18.8852697,4.88262343 17.3440287,5.01479482 C16.0139749,5.13345965 14.6615225,5.44989918 13.5298569,6.11172089 C13.9426322,6.96649354 14.2796787,7.84634981 14.6316577,8.72234706 C15.6971939,8.36924684 16.8832562,7.96115561 18.0159884,8.26505334 C18.8671375,8.57281008 18.7188797,9.52212869 18.7348787,10.1878094 C17.3354958,9.67648943 15.6534632,9.86268709 14.4364693,10.6682572 C13.0349532,11.6609898 12.659509,13.3811474 12.6893739,14.9073893 C12.7331046,16.2715524 13.1384137,17.8064771 14.4268699,18.6477432 C15.7953213,19.5932028 18.0917172,19.5536478 19.1017901,18.1779077 C19.1583201,18.4702283 19.2319157,18.7596547 19.3129775,19.0481164 C20.4713082,19.0481164 21.6296388,19.0510107 22.7890361,19.0461869 C22.7890361,15.8943333 22.7975689,12.7405503 22.7837031,9.58869676 Z" id="Fill-6" fill="#FFFFFF" mask="url(#mask-2)"></path>
                    <path d="M73.2809476,5.07171535 C74.6995294,4.74080449 76.5020881,5.1537195 77.1452497,6.45034979 C77.6177547,5.69687638 78.465704,5.16819082 79.4096475,5.03216041 C80.7034367,4.84789226 82.174282,5.03505467 83.1406242,5.8965806 C84.0173717,6.77450736 84.3053545,7.99781629 84.3245533,9.15069813 C84.3266865,12.4491944 84.3224201,15.7496201 84.3266865,19.0490811 C82.7555805,19.0490811 81.1844746,19.0471516 79.6165684,19.0490811 C79.617635,16.1056146 79.6165684,13.1650424 79.6165684,10.2225406 C79.6037692,9.77778868 79.6197682,9.30795315 79.4075143,8.8960029 C79.1472632,8.5448322 78.5115679,8.56702155 78.2406508,8.89407339 C78.0603949,9.174817 78.0497289,9.50958687 78.0390628,9.82506166 C78.0390628,12.8987701 78.041196,15.9734432 78.0390628,19.0471516 C76.4679569,19.0500459 74.8957843,19.0471516 73.3225451,19.0471516 C73.3225451,16.1027204 73.3225451,13.1592538 73.3225451,10.2148225 C73.3044129,9.78550671 73.3140123,9.33400152 73.1252236,8.93169882 C72.8660391,8.46958133 71.9828919,8.58438714 71.8516998,9.0812358 C71.7333069,9.49511555 71.7749044,9.92925516 71.7557055,10.3527825 C71.7503725,13.2509055 71.7557055,16.1499933 71.7535723,19.0471516 C70.1750001,19.0490811 68.5985612,19.0471516 67.0231888,19.0490811 C67.0231888,14.5012276 67.0231888,9.95530354 67.0231888,5.40841473 C68.4481702,5.40841473 69.8752847,5.40841473 71.3023993,5.40841473 C71.3418636,5.77116249 71.3749283,6.13487501 71.4101262,6.49665801 C71.7994363,5.82132974 72.4585968,5.27624334 73.2809476,5.07171535" id="Fill-7" fill="#FFFFFF" mask="url(#mask-2)"></path>
                    <path d="M89.9658157,10.7685917 C89.9988804,9.97170437 89.8826207,9.06579972 90.4447204,8.38757718 C90.7615014,7.92063592 91.6446486,7.97466218 91.8761014,8.48791167 C92.2238139,9.20183013 92.17795,10.0054708 92.204615,10.7685917 C91.4590597,10.7685917 90.7113711,10.767627 89.9658157,10.7685917 Z M96.4166296,13.6281246 C96.5563546,11.7642186 96.4592937,9.86847562 95.8822616,8.06631387 C95.5004178,7.09577067 94.8753885,6.15031108 93.8781149,5.61004846 C92.3358072,4.86332834 90.4116557,4.81412585 88.807485,5.41999179 C87.6256891,5.82904777 86.7756066,6.77064834 86.250838,7.78171124 C85.4178212,9.60220332 85.2802295,11.6137168 85.4284872,13.5586623 C85.5906109,14.9720279 85.9383234,16.4548558 86.9526627,17.5865131 C87.9659354,18.7577252 89.6607673,19.3462256 91.2841368,19.2864108 C93.1442921,19.3684149 95.1484389,18.7422892 96.3025031,17.3684785 C95.7382702,16.639124 95.1217738,15.9445006 94.5522079,15.2180403 C93.9218456,15.5856118 93.2690847,16.0158924 92.4968642,16.0622007 C91.9198321,16.1114031 91.2489389,16.1413105 90.7721674,15.7891751 C90.1066073,15.2489125 89.9551497,14.3912456 89.9508833,13.6223361 C92.105421,13.6339131 94.2610253,13.6213713 96.4166296,13.6281246 Z" id="Fill-8" fill="#FFFFFF" mask="url(#mask-2)"></path>
                    <path d="M97.9941352,6.91150252 C98.9274127,5.59364763 100.717172,4.98392267 102.391739,5.01190056 C103.827386,5.03601943 105.285432,5.33798764 106.537624,5.98726754 C106.216576,6.87966562 105.837932,7.75855713 105.499819,8.64516668 C104.560142,8.32004436 103.581001,7.90230558 102.549596,8.04412452 C102.03976,8.11551636 101.692047,8.55930352 101.681381,9.01080871 C101.608852,9.55782461 102.195484,9.88970022 102.629591,10.154043 C103.868984,10.7521909 105.272633,11.2982421 106.026721,12.4327936 C106.747745,13.4428917 106.77121,14.7192621 106.504559,15.8615317 C106.237909,17.0423914 105.451822,18.1740487 104.225229,18.7046637 C103.010368,19.3414018 101.558722,19.3452608 100.19987,19.2497501 C98.9466115,19.0876713 97.6773542,18.7326416 96.6544821,18.042842 C97.0875228,17.0983472 97.6208242,16.194372 98.0463988,15.2460182 C99.0127409,15.722607 100.066545,16.194372 101.206743,16.0486941 C102.148553,16.0650949 102.553862,14.8350327 101.904301,14.2947701 C101.305937,13.716882 100.437722,13.4930589 99.7252316,13.0579546 C98.827152,12.6016256 97.9856024,11.9388392 97.6208242,11.0435468 C97.0363259,9.71411487 97.1792506,8.13577621 97.9941352,6.91150252" id="Fill-9" fill="#FFFFFF" mask="url(#mask-2)"></path>
                    <path d="M49.325048,13.5750631 C49.2898501,14.224343 49.3378472,14.9228254 48.9784021,15.5093962 C48.6978855,16.0004564 47.764608,15.9898441 47.5235558,15.4765946 C47.0969147,14.7279449 47.0947815,13.86256 47.0478509,13.0425185 C47.0233191,11.9465572 47.0030536,10.8399836 47.1833095,9.75463456 C47.2878366,9.36487367 47.369965,8.88249633 47.7806071,8.65577898 C48.1933824,8.44546246 48.7661481,8.61332978 48.9720024,8.99633739 C49.1778568,9.37259171 49.2599852,9.79515426 49.2930499,10.212893 C49.3527797,11.3329732 49.3837111,12.4549829 49.325048,13.5750631 Z M53.7279845,9.42758273 C53.401604,7.99009825 52.6411162,6.51112933 51.1681377,5.76826823 C49.9628765,5.20195723 48.5421615,5.04663173 47.2078414,5.22897036 C46.4430871,5.36500077 45.6666003,5.57435254 45.0458374,6.01717494 C43.8736409,6.78511966 43.1419514,8.00553433 42.8198373,9.26453919 C42.3121344,11.0551239 42.2982685,12.9470078 42.6321152,14.7646056 C42.8347697,15.6338496 43.0747554,16.5252829 43.6496543,17.264285 C44.4389404,18.4499685 45.9407172,19.1224025 47.4350278,19.2333493 C49.045598,19.4127937 50.7948267,19.0056672 51.9488909,17.9396133 C52.9109667,17.0722988 53.4133366,15.8866153 53.713052,14.7096146 C54.0319663,12.9653381 54.0298331,11.1737887 53.7279845,9.42758273 Z" id="Fill-10" fill="#FFFFFF" mask="url(#mask-2)"></path>
                </g>
                <path d="M36.6474067,5.40841473 C38.2121131,5.40841473 39.7757528,5.40648522 41.3415258,5.40841473 C41.3415258,9.95530354 41.3415258,14.5012276 41.3415258,19.0490811 C39.7757528,19.0490811 38.2121131,19.0471516 36.6474067,19.0490811 C36.6484733,14.5012276 36.6484733,9.95530354 36.6474067,5.40841473" id="Fill-12" fill="#FFFFFF"></path>
                <path d="M61.0480797,5.40841473 C62.6234521,5.40841473 64.1998911,5.40648522 65.7752635,5.40937949 C65.7752635,9.95530354 65.7752635,14.5012276 65.7752635,19.0471516 C64.1998911,19.0490811 62.6234521,19.0471516 61.0480797,19.0471516 C61.0480797,14.5012276 61.0459465,9.95530354 61.0480797,5.40841473" id="Fill-13" fill="#FFFFFF"></path>
            </g>
        </g>
    </g>
</svg>