<?xml version="1.0" encoding="UTF-8"?>
<svg width="118px" height="42px" viewBox="0 0 118 42" version="1.1" xmlns="http://www.w3.org/2000/svg" xmlns:xlink="http://www.w3.org/1999/xlink">
    <!-- Generator: Sketch 48.1 (47250) - http://www.bohemiancoding.com/sketch -->
    <title>The_Huffington_Post_logo</title>
    <desc>Created with Sketch.</desc>
    <defs></defs>
    <g id="Components/mobile/homepage" stroke="none" stroke-width="1" fill="none" fill-rule="evenodd" transform="translate(-207.000000, -228.000000)">
        <g id="Group-2" transform="translate(47.000000, 226.000000)" fill="#FFFFFF" fill-rule="nonzero">
            <g id="The_Huffington_Post_logo" transform="translate(160.000000, 2.000000)">
                <path d="M47.4906756,7.96677608 C47.4906756,9.50722284 47.5225081,9.72808544 48.4623071,9.8007744 L48.9805106,9.84550606 C49.0771597,9.90425365 49.0452449,10.1679468 48.9476088,10.2117466 C48.02533,10.1828201 47.4742247,10.1679095 46.8264704,10.1679095 C46.178716,10.1679095 45.612188,10.1828201 44.575781,10.2117466 C44.479132,10.1679095 44.4462302,9.91819502 44.575781,9.84550606 L45.15876,9.8007744 C46.0820669,9.72808544 46.1632933,9.50722284 46.1632933,7.96677608 L46.1632933,1.40706358 C46.1632933,0.95229164 46.1632933,0.937381085 45.6769634,0.937381085 L44.7865582,0.937381085 C44.0904794,0.937381085 43.2000742,0.966233009 42.7949707,1.30455351 C42.4063181,1.62699427 42.2448936,1.94943504 42.0670182,2.31660746 C41.9374673,2.40513889 41.7102392,2.33151802 41.6454637,2.2140974 C41.9045655,1.55430532 42.1472163,0.614940323 42.2613445,0.0278372014 C42.309669,-0.0019839095 42.519418,-0.0159252789 42.5687707,0.0278372014 C42.6654198,0.497519698 43.2000742,0.482609143 43.9444776,0.482609143 L50.5022192,0.482609143 C51.3761735,0.482609143 51.5221753,0.452788032 51.7648261,0.0716369581 C51.8460113,0.0418158472 52.0239279,0.0567264026 52.0568297,0.115473991 C51.8779261,0.717487668 51.7648261,1.90567256 51.8131507,2.34646585 C51.7494034,2.46388648 51.4738508,2.46388648 51.3926244,2.37531778 C51.3442588,2.00907726 51.2311999,1.46577389 50.9875209,1.30455351 C50.6153192,1.05480171 50.0004667,0.937381085 49.1100615,0.937381085 L47.9605546,0.937381085 C47.4742247,0.937381085 47.4906756,0.95229164 47.4906756,1.43595278 L47.4906756,7.96677608 Z" id="path3321"></path>
                <path d="M57.8847232,5.21297671 C57.1200271,5.21297671 57.087659,5.24413407 57.087659,5.70370512 L57.087659,7.86524691 C57.087659,9.47569292 57.1675273,9.68989976 58.0597132,9.78239817 L58.52197,9.8281216 C58.6170513,9.88950159 58.5856542,10.1650105 58.4896019,10.2117466 C57.6298245,10.1805892 57.087659,10.1650105 56.4665963,10.1650105 C55.7818088,10.1650105 55.2406548,10.1961679 54.6195921,10.2117466 C54.5234993,10.1650105 54.4921427,9.92062001 54.587224,9.8281216 L54.8583068,9.78239817 C55.7504523,9.62855871 55.7818088,9.47569292 55.7818088,7.86524691 L55.7818088,2.345526 C55.7818088,0.736053664 55.6705435,0.475110781 54.8421227,0.41376973 L54.4284181,0.383624985 C54.3323253,0.322322881 54.3647339,0.0457623713 54.4598151,0 C55.2406953,0.0155786796 55.7818493,0.045801318 56.4666367,0.045801318 C57.0876994,0.045801318 57.629865,0.0302226384 58.3146524,0 C58.4107451,0.045801318 58.4421017,0.322283934 58.3470205,0.383624985 L58.0435696,0.41376973 C57.1200675,0.50626814 57.0876994,0.736053664 57.0876994,2.345526 L57.0876994,4.1088378 C57.0876994,4.58398752 57.1200675,4.5995662 57.8847637,4.5995662 L62.4405724,4.5995662 C63.204257,4.5995662 63.2366251,4.58398752 63.2366251,4.1088378 L63.2366251,2.345526 C63.2366251,0.736053664 63.204257,0.50626814 62.2645709,0.41376973 L61.9621315,0.383624985 C61.8670503,0.322322881 61.8984473,0.0457623713 61.9944996,0 C62.7268277,0.0302226384 63.2689932,0.045801318 63.9214125,0.045801318 C64.5424752,0.045801318 65.0846408,0.0302226384 65.8007847,0 C65.8968775,0.045801318 65.9282341,0.322283934 65.8331528,0.383624985 L65.4983454,0.41376973 C64.5748433,0.50626814 64.5424752,0.736053664 64.5424752,2.345526 L64.5424752,7.86524691 C64.5424752,9.47569292 64.5748433,9.67432108 65.4983454,9.78239817 L65.8806935,9.8281216 C65.9767862,9.88950159 65.9443777,10.1650105 65.8493773,10.2117466 C65.0846812,10.1805892 64.5425157,10.1650105 63.921453,10.1650105 C63.2690336,10.1650105 62.6955115,10.1805892 61.9945401,10.2117466 C61.8984473,10.1650105 61.8670907,9.92062001 61.962172,9.8281216 L62.2646113,9.78239817 C63.2366656,9.62855871 63.2366656,9.47569292 63.2366656,7.86524691 L63.2366656,5.70370512 C63.2366656,5.24413407 63.2042975,5.21297671 62.4406128,5.21297671 L57.8848041,5.21297671 L57.8847232,5.21297671 Z" id="path3325"></path>
                <path d="M69.9281755,2.34577967 C69.9281755,0.750766344 69.8936485,0.520959784 68.8912888,0.413846558 L68.6193893,0.382686346 C68.5179664,0.32130073 68.5524933,0.0457665605 68.6539162,0 C69.3843764,0.0301475045 69.9616234,0.0458055108 70.6586357,0.0458055108 L73.8534552,0.0458055108 C74.9399743,0.0458055108 75.943413,0.0458055108 76.1473377,0 C76.2487605,0.259993014 76.3512623,1.36423301 76.4181582,2.03904633 C76.3512623,2.13155321 76.0793628,2.16173967 75.9941244,2.07020655 C75.7394884,1.3486529 75.5862752,0.81211301 74.7026017,0.612492905 C74.3454638,0.53653989 73.8016648,0.520959784 73.05502,0.520959784 L71.8314722,0.520959784 C71.3211211,0.520959784 71.3211211,0.551107289 71.3211211,1.13442645 L71.3211211,4.200786 C71.3211211,4.63021266 71.3729115,4.63021266 71.8821836,4.63021266 L72.8672799,4.63021266 C73.5815556,4.63021266 74.1080912,4.60006516 74.3120159,4.53867954 C74.5159405,4.47729393 74.6346268,4.384826 74.7198652,4.00213965 L74.8558149,3.37309288 C74.9399743,3.28155976 75.2291373,3.28155976 75.2971122,3.38867299 C75.2971122,3.75675299 75.2290941,4.35463954 75.2290941,4.93694599 C75.2290941,5.48906599 75.2971122,6.0723462 75.2971122,6.40926598 C75.2290941,6.51637921 74.9399743,6.51637921 74.8558149,6.42484609 L74.7026017,5.82695953 C74.6345837,5.55041266 74.5159405,5.3206061 74.1760661,5.24367933 C73.9376145,5.18229371 73.5297652,5.1667136 72.8672799,5.1667136 L71.8821836,5.1667136 C71.3729115,5.1667136 71.3211211,5.18229371 71.3211211,5.58153392 L71.3211211,7.74327358 C71.3211211,8.55636035 71.3729115,9.07732014 71.644811,9.33828691 C71.8476567,9.5223269 72.2047945,9.6907868 73.7002419,9.6907868 C75.0079492,9.6907868 75.5010368,9.62947908 75.8754381,9.46098024 C76.1807856,9.30712669 76.6393463,8.7705868 77.0817226,7.97308014 C77.2004089,7.89712713 77.4388604,7.94293264 77.5068353,8.08019337 C77.38707,8.61770702 76.9619573,9.79790002 76.7407692,10.2117466 C75.2118738,10.1815212 73.7002419,10.1659411 72.1875311,10.1659411 L70.6586357,10.1659411 C69.9281755,10.1659411 69.3509285,10.1815212 68.3485687,10.2117466 C68.2460669,10.1659411 68.21154,9.92059336 68.3140418,9.82906024 L68.8751043,9.78231992 C69.8429371,9.7063669 69.9281755,9.47558659 69.9281755,7.86596692 L69.9281755,2.34574071 L69.9281755,2.34577967 Z" id="path3329"></path>
                <path d="M3.51427677,21.0978761 C2.7495796,21.0978761 2.71822297,21.1280206 2.71822297,21.5886007 L2.71822297,23.750126 C2.71822297,25.3605598 2.7971203,25.574765 3.689267,25.6672627 L4.15152442,25.7130637 C4.24660581,25.7743653 4.21524918,26.04995 4.11915628,26.0966857 C3.25937772,26.0655286 2.71822297,26.04995 2.09614789,26.04995 C1.41135955,26.04995 0.870204811,26.0811071 0.249141236,26.0966857 C0.153048337,26.04995 0.121691707,25.8055614 0.216773101,25.7130637 L0.487856226,25.6672627 C1.38000292,25.5134244 1.41135955,25.3605598 1.41135955,23.750126 L1.41135955,18.2304472 C1.41135955,16.6209872 1.30009409,16.3600463 0.471672158,16.2987057 L0.0579669429,16.2685612 C-0.0381259555,16.2071817 -0.00575782131,15.9307011 0.089323573,15.8849391 C0.870204811,15.9005177 1.41135955,15.9306622 2.09614789,15.9306622 C2.71822297,15.9306622 3.25937772,15.9150836 3.94416606,15.8849391 C4.04025896,15.9306622 4.07161559,16.2072206 3.97653419,16.2685612 L3.67308293,16.2987057 C2.7495796,16.3912034 2.71822297,16.6209872 2.71822297,18.2304472 L2.71822297,19.9937456 C2.71822297,20.4688917 2.7495796,20.4844702 3.51427677,20.4844702 L8.07009167,20.4844702 C8.83377733,20.4844702 8.86614547,20.4688917 8.86614547,19.9937456 L8.86614547,18.2304472 C8.86614547,16.6209872 8.83377733,16.3912034 7.89510144,16.2987057 L7.59165018,16.2685612 C7.49656879,16.2071817 7.52792542,15.9307011 7.62401832,15.8849391 C8.35634735,15.9150836 8.8985136,15.9306622 9.55093381,15.9306622 C10.1719974,15.9306622 10.7141636,15.9150836 11.4303086,15.8849391 C11.5264015,15.9306622 11.5577581,16.2072206 11.4626767,16.2685612 L11.1278688,16.2987057 C10.2043655,16.3912034 10.1719974,16.6209872 10.1719974,18.2304472 L10.1719974,23.750126 C10.1719974,25.3605598 10.2043655,25.5591864 11.1278688,25.6672627 L11.5102174,25.7130637 C11.6063103,25.7743653 11.5739422,26.04995 11.4788608,26.0966857 C10.7141636,26.0655286 10.1719974,26.04995 9.55093381,26.04995 C8.8985136,26.04995 8.32499072,26.0655286 7.62401832,26.0966857 C7.52792542,26.04995 7.49656879,25.8055614 7.59165018,25.7130637 L7.89510144,25.6672627 C8.86614547,25.5134244 8.86614547,25.3605598 8.86614547,23.750126 L8.86614547,21.5886007 C8.86614547,21.1280595 8.83377733,21.0978761 8.07009167,21.0978761 L3.51427677,21.0978761 Z" id="path3333"></path>
                <path d="M23.274309,19.7049135 C23.274309,18.7728398 23.2410363,17.0433464 22.9634177,16.5916344 C22.849043,16.4111406 22.5537483,16.3060913 22.1451186,16.2764865 L21.7354491,16.2459267 C21.636671,16.1408774 21.6699436,15.9451037 21.767682,15.8849391 C22.3905043,15.9154989 22.9956506,15.9307788 23.6340695,15.9307788 C24.3223973,15.9307788 24.7642997,15.9154989 25.3538494,15.8849391 C25.4848604,15.9603454 25.4682241,16.1561573 25.3860822,16.2459267 L24.9930491,16.2764865 C24.5844194,16.3061295 24.2735281,16.4417004 24.17475,16.6374741 C23.9460005,17.1331158 23.9460005,18.8626092 23.9460005,19.7049135 L23.9460005,21.4048021 C23.9460005,22.7131434 23.7162113,24.0959741 22.799134,24.9984431 C22.0952096,25.7051383 20.8838773,26.0966857 19.6725451,26.0966857 C18.5423149,26.0966857 17.4131245,25.900912 16.6104219,25.2696613 C15.7422138,24.6078507 15.3335841,23.509608 15.3335841,21.71995 L15.3335841,18.1711938 C15.3335841,16.6069143 15.3003115,16.351931 14.3510013,16.2764865 L13.9413318,16.2459267 C13.8425537,16.1857239 13.8758263,15.9307788 13.9746045,15.8849391 C14.7929036,15.9154989 15.3491807,15.9307788 16.0042359,15.9307788 C16.6759274,15.9307788 17.2166079,15.9154989 18.0182707,15.8849391 C18.1170489,15.9307788 18.1492818,16.1857621 18.0515434,16.2459267 L17.6585102,16.2764865 C16.7081603,16.3519692 16.6759274,16.6069143 16.6759274,18.1711938 L16.6759274,21.419127 C16.6759274,23.8409908 17.4942266,25.4348751 20.0000727,25.4348751 C22.373868,25.4348751 23.274309,23.7206616 23.274309,21.4344069 L23.274309,19.7049135 Z" id="path3337"></path>
                <path d="M30.3800011,20.2546475 C30.3800011,20.668453 30.4257687,20.668453 30.8863661,20.668453 L31.9292833,20.668453 C32.5573707,20.668453 33.0481553,20.6383085 33.2321995,20.576929 C33.4006632,20.5155495 33.5233593,20.4386693 33.6158683,20.0394687 L33.7541449,19.4260628 C33.8300997,19.3345388 34.0910724,19.3345388 34.1524205,19.4260628 C34.1524205,19.7941063 34.0910724,20.4075122 34.0910724,20.975156 C34.0910724,21.5272212 34.1524205,22.1094699 34.1524205,22.4629085 C34.0910724,22.5544326 33.8612606,22.5544326 33.7541449,22.4629085 L33.6002879,21.8641076 C33.5233593,21.5885618 33.4006632,21.3733829 33.1095033,21.2818589 C32.895272,21.2204794 32.5116031,21.2049787 31.9292833,21.2049787 L30.8863661,21.2049787 C30.4257687,21.2049787 30.3800011,21.2205572 30.3800011,21.6197579 L30.3800011,23.750126 C30.3800011,25.3605598 30.4111621,25.5903435 31.3158026,25.6672627 L31.8367743,25.7130637 C31.9292833,25.7743653 31.8981224,26.04995 31.8065872,26.0966857 C30.9009728,26.0655286 30.3800011,26.04995 29.7665204,26.04995 C29.0916917,26.04995 28.57072,26.0655286 27.8501236,26.0966857 C27.7576146,26.04995 27.7274275,25.8055614 27.8189627,25.7130637 L28.2026316,25.6672627 C29.0916917,25.5591864 29.1228526,25.3605598 29.1228526,23.750126 L29.1228526,18.2304472 C29.1228526,16.6209872 29.0916917,16.4058083 28.2026316,16.2987057 L27.9572393,16.2685612 C27.8657041,16.2071817 27.8958912,15.9307011 27.9874264,15.8849391 C28.632068,15.9150836 29.1530397,15.9306622 29.7665204,15.9306622 L32.5885316,15.9306622 C33.5701007,15.9306622 34.4591608,15.9306622 34.6587855,15.8849391 C34.6587855,16.589869 34.6733922,17.325956 34.7045531,17.9091784 C34.6587855,18.0007024 34.4435804,18.0464644 34.3364647,17.9549014 C34.2137686,17.2645765 34.0297244,16.6979063 33.2633604,16.498306 C32.9254591,16.4057694 32.4190941,16.4057694 31.7754263,16.4057694 L30.8405985,16.4057694 C30.3800011,16.4057694 30.3800011,16.4369265 30.3800011,17.0191752 L30.3800011,20.2546475 Z" id="path3341"></path>
                <path d="M40.7913671,20.2546475 C40.7913671,20.668453 40.8371347,20.668453 41.2977321,20.668453 L42.3406493,20.668453 C42.9687366,20.668453 43.4595212,20.6383085 43.6435654,20.576929 C43.8120291,20.5155495 43.9347253,20.4386693 44.0272343,20.0394687 L44.1655109,19.4260628 C44.2414656,19.3345388 44.5024384,19.3345388 44.5637864,19.4260628 C44.5637864,19.7941063 44.5024384,20.4075122 44.5024384,20.975156 C44.5024384,21.5272212 44.5637864,22.1094699 44.5637864,22.4629085 C44.5024384,22.5544326 44.2726266,22.5544326 44.1655109,22.4629085 L44.0116538,21.8641076 C43.9347253,21.5885618 43.8120291,21.3733829 43.5208693,21.2818589 C43.3066379,21.2204794 42.922969,21.2049787 42.3406493,21.2049787 L41.2977321,21.2049787 C40.8371347,21.2049787 40.7913671,21.2205572 40.7913671,21.6197579 L40.7913671,23.750126 C40.7913671,25.3605598 40.822528,25.5903435 41.7271686,25.6672627 L42.2481403,25.7130637 C42.3406493,25.7743653 42.3094883,26.04995 42.2179531,26.0966857 C41.3123388,26.0655286 40.7913671,26.04995 40.1778864,26.04995 C39.5030576,26.04995 38.9820859,26.0655286 38.2614895,26.0966857 C38.1689805,26.04995 38.1387934,25.8055614 38.2303286,25.7130637 L38.6139975,25.6672627 C39.5030576,25.5591864 39.5342185,25.3605598 39.5342185,23.750126 L39.5342185,18.2304472 C39.5342185,16.6209872 39.5030576,16.4058083 38.6139975,16.2987057 L38.3686052,16.2685612 C38.27707,16.2071817 38.3072571,15.9307011 38.3987924,15.8849391 C39.043434,15.9150836 39.5644057,15.9306622 40.1778864,15.9306622 L42.9998976,15.9306622 C43.9814667,15.9306622 44.8705268,15.9306622 45.0701515,15.8849391 C45.0701515,16.589869 45.0847581,17.325956 45.1159191,17.9091784 C45.0701515,18.0007024 44.8549463,18.0464644 44.7478306,17.9549014 C44.6251345,17.2645765 44.4410903,16.6979063 43.6747263,16.498306 C43.336825,16.4058083 42.83046,16.4058083 42.1867922,16.4058083 L41.2509907,16.4058083 C40.7913671,16.4058083 40.7913671,16.4369654 40.7913671,17.0192141 L40.7913671,20.2546865 L40.7913671,20.2546475 Z" id="path3345"></path>
                <path d="M49.0169972,18.2616044 C49.0169972,16.6365657 48.9810043,16.3756248 47.9360874,16.2987057 L47.4940504,16.2685612 C47.3871967,16.2071817 47.4232345,15.9307011 47.5288735,15.8849391 C48.415197,15.9160962 49.0169522,15.9306622 49.7604291,15.9306622 C50.469038,15.9306622 51.071918,15.9160962 51.9571168,15.8849391 C52.0639705,15.9306622 52.0988385,16.2072206 51.9920298,16.2685612 L51.5499928,16.2987057 C50.5050759,16.3755859 50.469083,16.6365657 50.469083,18.2616044 L50.469083,23.7199426 C50.469083,25.3449812 50.5050759,25.5591864 51.5499928,25.6672627 L51.9920298,25.7130637 C52.0988835,25.7744432 52.0640155,26.0509237 51.9571168,26.0966857 C51.071918,26.0655286 50.469038,26.0508847 49.7604291,26.0508847 C49.0169522,26.0508847 48.415197,26.0655286 47.5288735,26.0966857 C47.4231445,26.0508847 47.3871517,25.8055614 47.4940504,25.7130637 L47.9360874,25.6672627 C48.9810043,25.5591864 49.0169972,25.3449812 49.0169972,23.7199426 L49.0169972,18.2616044 Z" id="path3349"></path>
                <path d="M64.5326212,23.2992478 C64.5326212,23.7510021 64.5326212,25.5398724 64.5795829,25.9314564 C64.5486218,26.0212342 64.4535783,26.0966857 64.2805719,26.0966857 C64.0915649,25.8407235 63.6345481,25.3144728 62.2644976,23.8254985 L58.6113629,19.8552188 C58.1863472,19.3891384 57.1153077,18.1551712 56.7842955,17.8247125 L56.7532544,17.8247125 C56.6902921,18.0052232 56.6742915,18.3509632 56.6742915,18.8027174 L56.6742915,22.0815171 C56.6742915,22.7882785 56.6902921,24.7433332 56.9573019,25.1941323 C57.0523054,25.3603168 57.367317,25.4500946 57.7613316,25.4797021 L58.2493495,25.5255461 C58.343353,25.6458866 58.3283125,25.8263972 58.2173484,25.9008937 C57.5093223,25.8713243 56.9573019,25.856043 56.3752805,25.856043 C55.7132561,25.856043 55.2882404,25.8713243 54.7372201,25.9008937 C54.627216,25.8263972 54.6112154,25.6153239 54.7062589,25.5255461 L55.1312746,25.4797021 C55.4932879,25.434775 55.7452972,25.3450355 55.8243001,25.178851 C56.0443083,24.6382741 56.0283077,22.8035598 56.0283077,22.0815171 L56.0283077,17.7339797 C56.0283077,17.3137432 56.0123071,16.9976107 55.6822949,16.6518707 C55.4612868,16.4407974 55.0842729,16.3357383 54.7062589,16.2908494 L54.4382491,16.2602867 C54.3432455,16.1705089 54.3432455,15.9451094 54.4692902,15.8849391 C55.1313146,15.9297898 55.9653453,15.9297898 56.2493558,15.9297898 C56.5013651,15.9297898 56.769375,15.9145085 56.9733825,15.8849391 C57.2883941,16.6518707 59.1464626,18.6374881 59.6664818,19.1933464 L61.1935381,20.8332237 C62.2805782,21.9907842 63.0526066,22.8331674 63.7926339,23.5552101 L63.823675,23.5552101 C63.8866374,23.4797967 63.8866374,23.2390776 63.8866374,22.9229452 L63.8866374,19.7043157 C63.8866374,18.9975544 63.8706368,17.0424996 63.5716258,16.5917005 C63.4776223,16.4560787 63.225613,16.3663009 62.5955898,16.2908494 L62.3275799,16.2602867 C62.2175758,16.1705089 62.2335764,15.929828 62.3595811,15.8849391 C63.0836078,15.9145085 63.6196275,15.9297898 64.2176496,15.9297898 C64.8946745,15.9297898 65.3046896,15.9145085 65.8397094,15.8849391 C65.965714,15.9594356 65.965714,16.1705089 65.8717105,16.2602867 L65.6507024,16.2908494 C65.1466838,16.3662627 64.8316722,16.4856863 64.7686699,16.6069818 C64.50066,17.1475587 64.5326612,19.0128357 64.5326612,19.7043157 L64.5326612,23.2992478 L64.5326212,23.2992478 Z" id="path3353"></path>
                <path d="M77.6663568,24.3555253 C77.6663568,24.945908 77.7606961,25.3001376 78.0417279,25.4032203 C78.0884408,25.4473022 78.0884408,25.5362907 78.0258392,25.5803351 C77.8381537,25.5803351 77.5571219,25.6394109 77.2592083,25.7124684 C76.4310085,25.9195709 75.3048952,26.0966857 74.4598137,26.0966857 C72.5998399,26.0966857 70.8947812,25.6103228 69.6902173,24.458608 C68.7527826,23.5730339 68.2522878,22.4072624 68.2522878,21.1084204 C68.2522878,19.85456 68.6902208,18.5857057 69.6594329,17.6111057 C70.7070957,16.5784045 72.2552532,15.8849391 74.6167149,15.8849391 C75.5084695,15.8849391 76.3366692,16.0470601 76.6028054,16.1060984 C76.8997259,16.1651741 77.384332,16.2682193 77.5720175,16.2391688 C77.5720175,16.7264688 77.6663568,17.4939663 77.8073693,18.3786032 C77.7607359,18.4966798 77.4786713,18.5116736 77.384332,18.4235848 C76.9473921,16.8295515 75.7736126,16.3272576 74.1787819,16.3272576 C71.1450286,16.3272576 69.815341,18.3645465 69.815341,20.5780131 C69.815341,23.410913 71.3634986,25.6393734 74.5074799,25.6393734 C75.476692,25.6393734 76.0556374,25.4472647 76.2274343,25.1961178 C76.3048918,25.0930351 76.3843354,24.8278314 76.3843354,24.3555253 L76.3843354,23.7651426 C76.3843354,22.5253389 76.3366692,22.43725 75.3674571,22.3332302 L74.6792767,22.2601352 C74.554153,22.2010595 74.5700417,21.9349562 74.6792767,21.8909118 C75.1330984,21.9208995 75.9930756,21.9349937 76.9156146,21.9349937 C77.5253444,21.9349937 78.0576167,21.9208995 78.5730072,21.8909118 C78.6832352,21.9499875 78.6981309,22.1711093 78.5888959,22.2601352 L78.3386485,22.2891483 C77.6812525,22.363143 77.6663568,22.7764483 77.6663568,23.528952 L77.6663568,24.3554878 L77.6663568,24.3555253 Z" id="path3357"></path>
                <path d="M86.8225025,23.8517219 C86.8225025,25.3921641 86.8554043,25.613026 87.794134,25.6857147 L88.3123375,25.7304463 C88.4089865,25.7891937 88.3770718,26.0528861 88.2794357,26.0966857 C87.3571569,26.0678339 86.8070798,26.0529234 86.1582972,26.0529234 C85.5115711,26.0529234 84.9450431,26.0678339 83.9076079,26.0966857 C83.8109588,26.0529234 83.7790852,25.803135 83.9076079,25.7304463 L84.491615,25.6857147 C85.4138938,25.613026 85.4951202,25.3921641 85.4951202,23.8517219 L85.4951202,17.2920288 C85.4951202,16.8372582 85.4951202,16.8223477 85.0098185,16.8223477 L84.1183851,16.8223477 C83.4223062,16.8223477 82.5319011,16.8511996 82.1267975,17.1895191 C81.7381449,17.5119589 81.5767204,17.8353306 81.398845,18.20157 C81.2692942,18.2901012 81.0420661,18.2164805 80.9772906,18.0990602 C81.2374205,17.4392701 81.4800714,16.4999079 81.5931713,15.9128065 C81.6414547,15.8829855 81.8522731,15.8689696 81.9005976,15.9128065 C81.9972467,16.3824876 82.5319011,16.3675771 83.2773326,16.3675771 L89.8340461,16.3675771 C90.7080004,16.3675771 90.8540022,16.3377561 91.096653,15.9566062 C91.1778382,15.9267851 91.3557547,15.9416956 91.3886566,16.0004431 C91.209753,16.6024549 91.096653,17.7906363 91.1449775,18.2314283 C91.0812303,18.3488486 90.8056776,18.3488486 90.7244513,18.2602801 C90.6760856,17.8940407 90.5630268,17.350739 90.3193478,17.1895191 C89.9471461,16.939768 89.3322935,16.8223477 88.4418884,16.8223477 L87.2923814,16.8223477 C86.8070798,16.8223477 86.8225025,16.8372582 86.8225025,17.3209179 L86.8225025,23.8517219 Z" id="path3361"></path>
                <path d="M93.7022934,21.0943637 C93.7022934,18.1433873 96.1705908,15.8849391 99.5605808,15.8849391 C103.362302,15.8849391 105.270478,18.3495526 105.270478,20.9472366 C105.270478,23.9272635 102.73739,26.0966857 99.5605808,26.0966857 C95.90725,26.0966857 93.7022934,23.7510858 93.7022934,21.0943637 M103.625643,21.4045489 C103.625643,18.9689859 102.423889,16.3422514 99.28052,16.3422514 C97.5698499,16.3422514 95.3481733,17.3899465 95.3481733,20.6220575 C95.3481733,22.8064735 96.5332068,25.6393734 99.7748065,25.6393734 C101.748817,25.6393734 103.625643,24.3114809 103.625643,21.4045489" id="path3365"></path>
                <path d="M116.589482,23.2992478 C116.589482,23.7510021 116.589482,25.5398724 116.636444,25.9314564 C116.605483,26.0212342 116.510439,26.0966857 116.337431,26.0966857 C116.148423,25.8407235 115.691403,25.3144728 114.321344,23.8254985 L110.668227,19.8552188 C110.243209,19.3891384 109.172163,18.1551712 108.841148,17.8247125 L108.810107,17.8247125 C108.747144,18.0052232 108.731144,18.3509632 108.731144,18.8027174 L108.731144,22.0815171 C108.731144,22.7882785 108.747144,24.7433332 109.014156,25.1941323 C109.10916,25.3603168 109.424173,25.4500946 109.81819,25.4797021 L110.306211,25.5255461 C110.400215,25.6458866 110.384215,25.8263972 110.27421,25.9008937 C109.56618,25.8713243 109.014156,25.856043 108.432131,25.856043 C107.770102,25.856043 107.345084,25.8713243 106.79406,25.9008937 C106.684055,25.8263972 106.668055,25.6153239 106.763099,25.5255461 L107.188117,25.4797021 C107.550133,25.434775 107.802144,25.3450355 107.881147,25.178851 C108.101156,24.6382741 108.085156,22.8035598 108.085156,22.0815171 L108.085156,17.7339797 C108.085156,17.3137432 108.070195,16.9976107 107.739141,16.6518707 C107.518131,16.4407974 107.141115,16.3357383 106.763099,16.2908494 L106.495087,16.2602867 C106.400083,16.1705089 106.400083,15.9451094 106.526049,15.8849391 C107.188077,15.9297898 108.022113,15.9297898 108.306125,15.9297898 C108.558136,15.9297898 108.826148,15.9145085 109.030156,15.8849391 C109.34517,16.6518707 111.20325,18.6374881 111.723272,19.1933464 L113.251338,20.8332237 C114.337385,21.9907842 115.109418,22.8331674 115.84945,23.5552101 L115.880412,23.5552101 C115.943454,23.4797967 115.943454,23.2390776 115.943454,22.9229452 L115.943454,19.7043157 C115.943454,18.9975544 115.928414,17.0424996 115.628441,16.5917005 C115.534437,16.4560787 115.282426,16.3663009 114.652399,16.2908494 L114.384387,16.2602867 C114.274382,16.1705089 114.290383,15.929828 114.416388,15.8849391 C115.14042,15.9145085 115.676443,15.9297898 116.274469,15.9297898 C116.951498,15.9297898 117.360515,15.9145085 117.896538,15.8849391 C118.022544,15.9594356 118.022544,16.1705089 117.92854,16.2602867 L117.70753,16.2908494 C117.203509,16.3662627 116.888495,16.4856863 116.825492,16.6069818 C116.557481,17.1475587 116.589482,19.0128357 116.589482,19.7043157 L116.589482,23.2992478 Z" id="path3369"></path>
                <path d="M41.0574407,39.6358541 C41.0574407,41.2454677 41.0919576,41.445087 42.1781632,41.5521998 L42.6376702,41.59894 C42.7390638,41.6758275 42.7056255,41.9358585 42.6031533,41.9816248 C41.6345211,41.9513995 41.0746992,41.9358195 40.3951465,41.9358195 C39.6821556,41.9358195 39.0705582,41.9513995 38.3230503,41.9816248 C38.2205781,41.9358195 38.1871398,41.6904727 38.2885334,41.59894 L38.6455682,41.5521998 C39.6303802,41.4304807 39.6648971,41.2454677 39.6648971,39.6358541 L39.6648971,33.9773761 C39.6648971,32.6744947 39.6303802,32.4135289 38.8666924,32.3366024 L38.2550951,32.2762298 C38.1353644,32.1837232 38.1526228,31.9539176 38.2885334,31.8925711 C39.1892103,31.7844845 40.2419775,31.7698783 41.6517796,31.7698783 C43.0615816,31.7698783 44.1154275,31.9383375 44.9136322,32.3823688 C45.6945784,32.8273739 46.2727375,33.6248775 46.2727375,34.6833469 C46.2727375,36.0933411 45.3041053,36.7993119 44.5738559,37.1216242 C43.826348,37.4429626 42.9256711,37.5812355 42.2299386,37.5812355 C42.1102079,37.5344954 42.1102079,37.3046897 42.2126802,37.2745034 C44.0474723,36.9677712 44.7097664,36.0319947 44.7097664,34.6979532 C44.7097664,33.2110325 43.7411343,32.2450697 41.9742974,32.2450697 C41.0746992,32.2450697 41.0574407,32.306455 41.0574407,32.7971876 L41.0574407,39.6358541 Z" id="path3373"></path>
                <path d="M47.4295559,35.8446643 C47.4295559,32.8936879 49.8978533,30.6352397 53.2878433,30.6352397 C57.0895646,30.6352397 58.9977403,33.0998533 58.9977403,35.6975372 C58.9977403,38.6775642 56.4636078,40.8469863 53.2878433,40.8469863 C49.6345125,40.8469863 47.4295559,38.5013865 47.4295559,35.8446643 M57.3529054,36.1548495 C57.3529054,33.7192865 56.1511518,31.0925521 53.0077825,31.0925521 C51.2971124,31.0925521 49.0754358,32.1411842 49.0754358,35.3723581 C49.0754358,37.5567741 50.2604693,40.389674 53.502069,40.389674 C55.4760798,40.389674 57.3529054,39.0617815 57.3529054,36.1548495" id="path3377"></path>
                <path d="M65.6759737,40.8469488 C64.2034233,40.8469488 63.2751488,40.4627315 62.9412372,40.3006106 C62.7308728,39.9763686 62.5038129,38.9286736 62.4681956,38.2352082 C62.5560812,38.1321255 62.8188029,38.1021378 62.8889243,38.1912013 C63.1516015,38.9437049 63.8706246,40.389674 65.9041467,40.389674 C67.3766972,40.389674 68.0946073,39.5781321 68.0946073,38.692558 C68.0946073,38.043137 67.9365558,37.3196839 66.6576741,36.6262185 L64.9925679,35.7115939 C64.1154932,35.2242939 63.0992887,34.3837014 63.0992887,33.1738854 C63.0992887,31.7710236 64.395979,30.6352397 66.6754827,30.6352397 C67.2186457,30.6352397 67.8497387,30.7233286 68.3049716,30.8273484 C68.5331446,30.8864242 68.7780132,30.9154373 68.9182561,30.9154373 C69.0763076,31.2696669 69.2343591,32.0962027 69.2343591,32.7156359 C69.1642822,32.8046619 68.8837519,32.8487063 68.7958218,32.7606175 C68.5676488,32.0521582 68.0946073,31.0925521 66.4116925,31.0925521 C64.6942734,31.0925521 64.3258576,32.0521582 64.3258576,32.7306298 C64.3258576,33.5862162 65.167315,34.2065866 65.8162167,34.5458223 L67.2186457,35.2833322 C68.3227803,35.858721 69.4091062,36.7152445 69.4091062,38.1171691 C69.4091062,39.740253 67.9543644,40.8469863 65.6759737,40.8469863" id="path3381"></path>
                <path d="M76.4110954,38.6020158 C76.4110954,40.1424626 76.4439972,40.3633252 77.3827269,40.4360141 L77.9009304,40.4807458 C77.9975795,40.5394934 77.965747,40.8031866 77.8690979,40.8469863 C76.9457909,40.8180599 76.3946856,40.8031493 75.7469313,40.8031493 C75.1002051,40.8031493 74.5326489,40.8180599 73.4972702,40.8469863 C73.3995929,40.8031493 73.3677193,40.5543667 73.4972702,40.4807458 L74.0792209,40.4360141 C75.0025279,40.3633252 75.0837542,40.1424626 75.0837542,38.6020158 L75.0837542,32.0423033 C75.0837542,31.5875314 75.0837542,31.5726208 74.5974244,31.5726208 L73.7070192,31.5726208 C73.0109403,31.5726208 72.1205351,31.6014728 71.7154316,31.9397933 C71.326779,32.262234 71.1653545,32.5856067 70.9874791,32.9518472 C70.8579282,33.0403786 70.6307001,32.9667578 70.5659247,32.8493371 C70.8250264,32.1895451 71.0676773,31.2501801 71.1818054,30.6630769 C71.2301711,30.6332558 71.4409071,30.6193145 71.4892317,30.6630769 C71.5858807,31.1327594 72.1205351,31.1178489 72.8649385,31.1178489 L79.4226802,31.1178489 C80.2976626,31.1178489 80.4426362,31.0880278 80.6863153,30.7068767 C80.7665134,30.6770556 80.945417,30.6919661 80.9772906,30.7507137 C80.7994152,31.3527274 80.6863153,32.5409123 80.7346398,32.9817056 C80.6699055,33.0991262 80.3943117,33.0991262 80.3130854,33.0105575 C80.2647197,32.644317 80.1516609,32.1010136 79.90901,31.9397933 C79.5357801,31.6900415 78.9209276,31.5726208 78.0305224,31.5726208 L76.8810155,31.5726208 C76.3946856,31.5726208 76.4111365,31.5875314 76.4111365,32.0721244 L76.4111365,38.6020158 L76.4110954,38.6020158 Z" id="path3385"></path>
            </g>
        </g>
    </g>
</svg>